<svg width="18" height="18" viewBox="0 0 18 18" fill="none" xmlns="http://www.w3.org/2000/svg">
<g clip-path="url(#clip0_292_1081)">
<path d="M18 9C18 13.9706 13.9706 18 9 18C4.02937 18 0 13.9706 0 9C0 4.02937 4.02937 0 9 0C13.9706 0 18 4.02937 18 9Z" fill="#FDED32"/>
<path d="M13.3303 6.31053C13.14 6.50073 13.0768 6.78239 13.163 7.03741C13.5782 8.26431 13.2971 9.67482 12.3192 10.6527L5.62628 17.3456C3.36942 16.4324 1.56766 14.6306 0.654419 12.3737L7.34729 5.68088C8.32521 4.70296 9.73572 4.42184 10.9626 4.83699C11.2176 4.92323 11.4993 4.86006 11.6895 4.66972L14.4905 1.8689C15.1053 2.34296 15.6571 2.89474 16.1311 3.50957L13.3303 6.31053Z" fill="#06995F"/>
<path d="M13.8844 2.47495C14.2011 2.71912 14.5013 2.98375 14.7826 3.2672L12.0376 6.01213C11.8473 6.20247 11.5656 6.26564 11.3107 6.17926C10.0838 5.76425 8.6732 6.04536 7.69542 7.02328L1.20964 13.5089C0.999115 13.146 0.813446 12.7667 0.654419 12.3738L7.34729 5.68089C8.32521 4.70297 9.73572 4.42186 10.9626 4.83701C11.2176 4.92325 11.4993 4.86008 11.6895 4.66974L13.8844 2.47495Z" fill="#037E4B"/>
<path d="M6.42755 16.5443L1.45569 11.5724L7.02411 6.00403L11.996 10.9759L6.42755 16.5443Z" fill="#E43950"/>
<path d="M17.291 2.69768L16.7938 3.19495C16.6825 3.30618 16.5152 3.32719 16.3827 3.25812L14.1339 5.50688L12.4932 3.86607L14.7419 1.61745C14.6728 1.48479 14.6938 1.31752 14.805 1.20615L15.3023 0.709015C15.4396 0.571686 15.6622 0.571686 15.7994 0.709015L17.117 2.02655L17.2911 2.20055C17.4283 2.33788 17.4283 2.56049 17.291 2.69768ZM7.86937 6.84927L7.02411 6.00401L1.45569 11.5724L2.30095 12.4177L7.86937 6.84927Z" fill="#AB2538"/>
<path d="M17.291 2.69769L16.7939 3.19496C16.6825 3.3062 16.5152 3.32721 16.3827 3.25813L14.1339 5.5069L13.3384 4.71135L14.9792 3.07068C15.0479 3.00201 15.1591 3.00201 15.2278 3.07068L15.4266 3.26953C15.5694 3.41235 15.8044 3.40659 15.9398 3.2525C16.0634 3.11174 16.0477 2.89627 15.9152 2.76389L15.5671 2.41562C15.5241 2.2923 15.5518 2.14989 15.6503 2.05142L16.1476 1.55429C16.2848 1.41696 16.5074 1.41696 16.6447 1.55429L17.117 2.02657L17.2911 2.20056C17.4283 2.33789 17.4283 2.5605 17.291 2.69769Z" fill="#E43950"/>
<path d="M8.83873 11.3985C8.22102 12.0163 7.21935 12.0163 6.6015 11.3985C5.98366 10.7806 5.98366 9.77894 6.6015 9.16109C7.21935 8.54339 8.22102 8.54339 8.83873 9.16109C9.45657 9.77894 9.45657 10.7806 8.83873 11.3985ZM4.33928 12.1194C4.27061 12.0508 4.15938 12.0508 4.09071 12.1194L3.84215 12.368C3.77348 12.4367 3.77348 12.5479 3.84215 12.6166L5.38339 14.1578C5.45206 14.2265 5.56329 14.2265 5.63196 14.1578L5.88052 13.9092C5.94919 13.8406 5.94919 13.7292 5.88052 13.6607L4.33928 12.1194ZM4.48842 10.2798C4.41975 10.2111 4.30852 10.2111 4.23985 10.2798L3.99129 10.5283C3.92262 10.597 3.92262 10.7084 3.99129 10.777L7.22292 14.0087C7.29158 14.0773 7.40295 14.0773 7.47162 14.0087L7.72018 13.7601C7.78885 13.6914 7.78885 13.5802 7.72018 13.5115L4.48842 10.2798Z" fill="#EF7280"/>
<path d="M8.34166 10.9013C7.99848 11.2445 7.44202 11.2445 7.0987 10.9013C6.75551 10.558 6.75551 10.0015 7.0987 9.65836C7.44202 9.31517 7.99848 9.31517 8.34166 9.65836C8.68485 10.0015 8.68485 10.558 8.34166 10.9013Z" fill="#AB2538"/>
</g>
<defs>
<clipPath id="clip0_292_1081">
<rect width="18" height="18" fill="white"/>
</clipPath>
</defs>
</svg>
