<svg width="18" height="18" viewBox="0 0 18 18" fill="none" xmlns="http://www.w3.org/2000/svg">
<g clip-path="url(#clip0_292_3756)">
<path d="M18 9C18 13.9706 13.9706 18 9 18C7.87267 18 6.79395 17.7921 5.79941 17.4136C4.88754 15.0179 2.9821 13.1125 0.586533 12.2006C0.207916 11.2061 0 10.1273 0 9C0 4.02937 4.02937 0 9 0C13.9706 0 18 4.02937 18 9Z" fill="#08B772"/>
<path d="M16.9188 6.30162L12.9898 10.2306L5.80478 17.4157C3.40482 16.5038 1.49622 14.5952 0.584351 12.1952L11.6984 1.08119C13.1399 -0.360355 15.4773 -0.360355 16.9188 1.08119C18.3604 2.52273 18.3604 4.86007 16.9188 6.30162Z" fill="#FCB30B"/>
<path d="M16.9188 6.30162L12.9898 10.2306L5.80478 17.4157C4.8226 17.0424 3.92282 16.5021 3.13977 15.8296C3.13304 15.8218 3.12645 15.814 3.11972 15.8062C2.02425 14.5217 2.11159 12.6071 3.30525 11.4134L12.6679 2.05073C13.9439 0.774808 15.9213 0.628415 17.3584 1.611C18.3411 3.04829 18.1948 5.02569 16.9188 6.30162ZM16.875 7.38281C16.6808 7.38281 16.5235 7.54019 16.5235 7.73437C16.5235 7.92855 16.6808 8.08593 16.875 8.08593C17.0692 8.08593 17.2266 7.92855 17.2266 7.73437C17.2266 7.54019 17.0692 7.38281 16.875 7.38281ZM17.5781 7.03125C17.7723 7.03125 17.9297 6.87387 17.9297 6.67968C17.9297 6.4855 17.7723 6.32812 17.5781 6.32812C17.384 6.32812 17.2266 6.4855 17.2266 6.67968C17.2266 6.87387 17.384 7.03125 17.5781 7.03125ZM17.6485 9.14062C17.4543 9.14062 17.2969 9.298 17.2969 9.49218C17.2969 9.68637 17.4543 9.84375 17.6485 9.84375C17.8426 9.84375 18 9.68637 18 9.49218C18 9.298 17.8426 9.14062 17.6485 9.14062Z" fill="#FDBF43"/>
<path d="M9.02142 9.26476C9.61867 10.2991 9.92793 11.3291 9.8995 12.0218C9.89374 12.163 9.74089 12.2511 9.61578 12.1856C9.00165 11.8638 8.26433 11.0809 7.66708 10.0467C7.06997 9.01235 6.76071 7.98224 6.78914 7.28969C6.7949 7.14852 6.94761 7.06021 7.07286 7.12586C7.68686 7.44762 8.42431 8.2304 9.02142 9.26476ZM4.17261 10.0261C4.0475 9.96047 3.89465 10.0486 3.88888 10.1898C3.86046 10.8825 4.16972 11.9126 4.76683 12.9468C5.36407 13.9812 6.10139 14.7641 6.71553 15.0857C6.84064 15.1514 6.99348 15.0632 6.99925 14.922C7.02768 14.2293 6.71841 13.1992 6.12117 12.165C5.52406 11.1306 4.7866 10.3479 4.17261 10.0261ZM9.97311 4.2256C9.84787 4.15996 9.69516 4.24826 9.68939 4.38944C9.66096 5.08213 9.97023 6.11209 10.5673 7.14646C11.1646 8.18068 11.9019 8.9636 12.516 9.28536C12.6411 9.35086 12.7939 9.2627 12.7998 9.12152C12.8282 8.42884 12.5189 7.39873 11.9217 6.3645C11.3246 5.33014 10.5871 4.54737 9.97311 4.2256ZM14.8219 3.46425C14.2248 2.42989 13.4874 1.64711 12.8734 1.32535C12.7481 1.25984 12.5954 1.34801 12.5896 1.48918C12.5612 2.18187 12.8705 3.21184 13.4676 4.2462C14.0648 5.28043 14.8022 6.06334 15.4163 6.3851C15.5414 6.45061 15.6941 6.36244 15.7 6.22127C15.7284 5.52858 15.4192 4.49861 14.8219 3.46425Z" fill="#FDA800"/>
<path d="M15.7 6.2213C15.6941 6.36247 15.5414 6.45064 15.4163 6.38513C15.2298 6.28735 15.032 6.147 14.8302 5.97012C14.9062 5.25272 14.675 4.17729 14.1568 3.07303C13.8842 2.49185 13.5667 1.97701 13.2398 1.56104C13.7661 1.95792 14.3398 2.62904 14.8219 3.46428C15.4192 4.49864 15.7284 5.52861 15.7 6.2213ZM4.51263 10.2422C4.84676 10.6624 5.17168 11.1866 5.45004 11.7798C5.96558 12.8787 6.19725 13.9491 6.12447 14.6666C6.32799 14.8454 6.52753 14.9874 6.71553 15.0859C6.84064 15.1514 6.99348 15.0632 6.99925 14.9221C7.02768 14.2294 6.71841 13.1994 6.12117 12.165C5.63091 11.3158 5.04616 10.6364 4.51263 10.2422ZM7.34161 7.29082C7.69496 7.72189 8.04021 8.27066 8.33368 8.89619C8.84248 9.98055 9.07471 11.0372 9.01085 11.7543C9.21918 11.939 9.42352 12.0848 9.61578 12.1856C9.74089 12.2511 9.89374 12.163 9.89951 12.0218C9.92793 11.3291 9.61867 10.2991 9.02142 9.26479C8.50919 8.37764 7.89395 7.67575 7.34161 7.29082ZM9.9771 4.22783C10.3981 4.68555 10.8193 5.31987 11.1676 6.06227C11.6489 7.08798 11.8828 8.08897 11.8526 8.8013C12.0811 9.011 12.3058 9.17525 12.516 9.28539C12.6411 9.35089 12.7939 9.26273 12.7998 9.12155C12.8282 8.42886 12.5189 7.39876 11.9217 6.36453C11.3258 5.3325 10.5904 4.55083 9.9771 4.22783Z" fill="#FC9302"/>
</g>
<defs>
<clipPath id="clip0_292_3756">
<rect width="18" height="18" fill="white"/>
</clipPath>
</defs>
</svg>
