<svg width="18" height="18" viewBox="0 0 18 18" fill="none" xmlns="http://www.w3.org/2000/svg">
<g clip-path="url(#clip0_292_1256)">
<path d="M18 9C18 13.9706 13.9706 18 9 18C4.02937 18 0 13.9706 0 9C0 4.02937 4.02937 0 9 0C13.9706 0 18 4.02937 18 9Z" fill="#84DEEA"/>
<path d="M14.7657 1.40625V9.84375L14.7632 9.84554C14.7572 9.92024 14.7381 9.99687 14.7028 10.0731L11.1558 17.7395C10.4651 17.9094 9.74313 18 9.00005 18C8.4977 18 8.00496 17.9588 7.52499 17.8797C7.32463 17.8466 7.25775 17.5231 7.06206 17.4771C6.86595 17.4309 6.54089 17.6622 6.34987 17.6034C4.14148 16.9239 2.29536 15.4171 1.17297 13.4451L3.51567 8.4375L14.7657 1.40625Z" fill="#86523E"/>
<path d="M14.7656 3.71475V5.38989L8.93163 17.9995C8.67633 17.9975 8.42365 17.985 8.17371 17.9622L14.7656 3.71475ZM10.4061 17.8901L14.7656 8.46758V6.7923L9.58916 17.9806C9.86505 17.9628 10.1375 17.9323 10.4061 17.8901Z" fill="#BB7C63"/>
<path d="M14.7027 1.6356L11.0352 9.56251L7.54005 17.1167C7.34299 17.5428 6.8622 17.7569 6.41245 17.6222C2.70319 16.5107 0 13.0711 0 9.00001C0 8.3374 0.0722351 7.69168 0.208191 7.06985L8.4375 3.2624L12.8018 1.24325C12.8455 1.317 12.9299 1.36383 13.0244 1.3516C13.1177 1.33952 13.1947 1.26701 13.2139 1.175C13.2229 1.1327 13.2188 1.09246 13.2063 1.05607L13.8332 0.766031C14.3865 0.51005 14.9587 1.0823 14.7027 1.6356Z" fill="#FD3D96"/>
<path d="M14.0656 2.63039C13.8509 2.6389 13.6488 2.58329 13.4771 2.48098C13.4312 2.62682 13.3534 2.76497 13.2427 2.88472C12.8928 3.26348 12.3326 3.33173 11.9076 3.07602C11.8617 3.22228 11.7837 3.36112 11.6726 3.48128C11.3227 3.8599 10.7625 3.92815 10.3373 3.67244C10.2916 3.81884 10.2135 3.95754 10.1025 4.0777C9.75259 4.45632 9.19243 4.52457 8.76726 4.26886C8.72139 4.41526 8.64339 4.5541 8.53242 4.67412C8.18237 5.05287 7.62234 5.12099 7.19717 4.86542C7.15131 5.01168 7.0733 5.15052 6.9622 5.27068C6.61229 5.64929 6.05212 5.71755 5.62709 5.46184C5.58122 5.60823 5.50322 5.74694 5.39212 5.8671C5.04221 6.24572 4.48204 6.31397 4.05701 6.05826C4.01114 6.20465 3.933 6.34349 3.82204 6.46352C3.47212 6.84214 2.91196 6.91039 2.48679 6.65468C2.44106 6.80107 2.36292 6.93991 2.25195 7.05994C1.90204 7.43869 1.34187 7.50695 0.916702 7.25124C0.870834 7.39763 0.792831 7.53633 0.68187 7.6565C0.510483 7.84189 0.288559 7.95272 0.0568848 7.9876C0.0847625 7.38843 0.488373 5.81821 0.681732 5.60892C1.03165 5.2303 1.59181 5.16205 2.01698 5.41776C2.06285 5.27137 2.14085 5.13253 2.25182 5.0125C2.60187 4.63388 3.1619 4.56563 3.58707 4.82134C3.63293 4.67494 3.71094 4.53611 3.82204 4.41608C4.17195 4.03733 4.73212 3.96907 5.15715 4.22478C5.20302 4.07852 5.28102 3.93968 5.39212 3.81952C5.74203 3.44091 6.3022 3.37265 6.72723 3.62836C6.7731 3.48197 6.85124 3.34326 6.9622 3.2231C7.31212 2.84449 7.87228 2.77623 8.29745 3.03194C8.34319 2.88555 8.42133 2.74671 8.53229 2.62668C8.8822 2.24793 9.44237 2.17981 9.86754 2.43538C9.91341 2.28913 9.99141 2.15029 10.1024 2.03012C10.4524 1.65151 11.0125 1.58325 11.4376 1.83896C11.4835 1.69257 11.5615 1.55387 11.6726 1.4337C12.0214 1.05619 12.5792 0.987384 13.0039 1.24034C13.1358 0.822589 13.5183 0.512362 13.9812 0.494098C14.5712 0.470889 15.0683 0.930255 15.0915 1.52008C15.1149 2.11005 14.6555 2.60718 14.0656 2.63039Z" fill="#FDE5BD"/>
<path d="M14.2827 2.5995C14.3538 2.73546 14.3967 2.88871 14.4031 3.05214C14.4234 3.56739 14.0756 4.01165 13.5942 4.13154C13.6652 4.26736 13.7082 4.42076 13.7147 4.58418C13.735 5.09944 13.3871 5.5437 12.9058 5.66345C12.9768 5.79941 13.0198 5.9528 13.0262 6.11622C13.0466 6.63134 12.6987 7.07574 12.2172 7.19549C12.2884 7.33145 12.3314 7.48471 12.3377 7.64813C12.358 8.16339 12.0101 8.60765 11.5288 8.72754C11.5999 8.86335 11.6428 9.01675 11.6492 9.18017C11.6696 9.69543 11.3217 10.1397 10.8404 10.2594C10.9114 10.3954 10.9544 10.5488 10.9608 10.7121C10.9811 11.2273 10.6333 11.6717 10.1519 11.7915C10.2229 11.9274 10.2659 12.0807 10.2724 12.2441C10.2927 12.7594 9.94485 13.2036 9.46338 13.3235C9.53452 13.4593 9.5775 13.6127 9.58395 13.7762C9.60428 14.2913 9.25642 14.7357 8.77495 14.8554C8.84608 14.9914 8.88907 15.1446 8.89552 15.3081C8.91585 15.8233 8.56799 16.2676 8.08652 16.3875C8.15765 16.5233 8.20064 16.6767 8.20709 16.8401C8.22549 17.3088 7.9393 17.7185 7.52512 17.879C7.12384 17.8128 6.73135 17.7205 6.34985 17.6031C6.18547 17.4234 6.0811 17.1869 6.0708 16.9243C6.05048 16.409 6.39833 15.9648 6.87967 15.845C6.80867 15.7091 6.76569 15.5557 6.75923 15.3923C6.73891 14.8771 7.08676 14.4327 7.5681 14.313C7.4971 14.177 7.45412 14.0238 7.44766 13.8603C7.42734 13.3451 7.77519 12.9008 8.25653 12.7809C8.18553 12.6451 8.14255 12.4917 8.13609 12.3283C8.11577 11.813 8.46362 11.3688 8.9451 11.249C8.87396 11.1131 8.83098 10.9597 8.82466 10.7963C8.80434 10.2811 9.15205 9.83674 9.63353 9.71699C9.56239 9.58104 9.51955 9.42778 9.51309 9.26436C9.49277 8.7491 9.84062 8.30484 10.322 8.18495C10.2508 8.04913 10.208 7.89573 10.2015 7.73231C10.1812 7.21705 10.5291 6.77279 11.0104 6.65304C10.9394 6.51709 10.8964 6.36383 10.89 6.20041C10.8696 5.68515 11.2175 5.24075 11.699 5.121C11.6278 4.98518 11.5848 4.83178 11.5785 4.66836C11.5582 4.15324 11.9059 3.70884 12.3874 3.58909C12.3272 3.47415 12.2876 3.34671 12.2729 3.2113C12.1458 3.18919 12.0218 3.14456 11.9076 3.07589C11.8617 3.22229 11.7837 3.36113 11.6727 3.48115C11.3227 3.85977 10.7626 3.92802 10.3375 3.67245C10.2916 3.81871 10.2136 3.95755 10.1025 4.07757C9.75259 4.45633 9.19243 4.52458 8.7674 4.26887C8.72153 4.41526 8.64352 4.55397 8.53242 4.67413C8.18251 5.05275 7.62234 5.121 7.19731 4.86529C7.15144 5.01169 7.0733 5.15039 6.96234 5.27055C6.61243 5.64917 6.05226 5.71742 5.62709 5.46171C5.58136 5.60811 5.50322 5.74695 5.39226 5.86697C5.04234 6.24572 4.48218 6.31398 4.05701 6.05827C4.01114 6.20453 3.93314 6.34337 3.82217 6.46353C3.47212 6.84214 2.91196 6.9104 2.48692 6.65469C2.44106 6.80108 2.36305 6.93979 2.25195 7.05995C1.90204 7.43857 1.34187 7.50682 0.91684 7.25111C0.900223 7.30398 0.879349 7.35562 0.854492 7.40588C0.991135 6.8497 1.16335 6.31384 1.2706 6.19766C1.62065 5.81904 2.18068 5.75079 2.60585 6.0065C2.65172 5.8601 2.72972 5.7214 2.84082 5.60124C3.19073 5.22262 3.7509 5.15437 4.17593 5.41008C4.2218 5.26368 4.2998 5.12484 4.4109 5.00482C4.76082 4.62607 5.32098 4.55781 5.74602 4.81352C5.79189 4.66726 5.87003 4.52842 5.98099 4.40826C6.3309 4.02964 6.89107 3.96139 7.31624 4.2171C7.36197 4.07071 7.44011 3.932 7.55107 3.81184C7.90099 3.43322 8.46115 3.36497 8.88632 3.62068C8.93219 3.47429 9.01019 3.33558 9.12115 3.21542C9.47121 2.83667 10.0314 2.76841 10.4564 3.02412C10.5023 2.87787 10.5803 2.73903 10.6914 2.61886C11.0413 2.24025 11.6015 2.17199 12.0265 2.4277C12.0724 2.28131 12.1504 2.14261 12.2615 2.02244C12.6103 1.64492 13.1682 1.57599 13.5929 1.82908C13.7247 1.41133 14.1072 1.1011 14.5702 1.08284C14.7272 1.07666 14.8776 1.10495 15.0144 1.16057C15.0595 1.27208 15.0866 1.39293 15.0917 1.52009C15.1119 2.03535 14.764 2.47975 14.2827 2.5995Z" fill="#FFF5F5"/>
<path d="M13.017 3.49997C13.0235 3.66339 13.0665 3.81665 13.1375 3.95261C12.6561 4.07236 12.3083 4.51675 12.3286 5.03188C12.3351 5.1953 12.378 5.34869 12.449 5.48451C11.9677 5.6044 11.6198 6.04866 11.6402 6.56392C11.6466 6.72734 11.6896 6.8806 11.7606 7.01656C11.2791 7.13631 10.9314 7.5807 10.9517 8.09583C10.9582 8.25925 11.001 8.41264 11.0722 8.54846C10.5907 8.66835 10.243 9.11261 10.2632 9.62787C10.2696 9.79129 10.3126 9.94455 10.3836 10.0805C9.90227 10.2003 9.55442 10.6447 9.57474 11.1598C9.5812 11.3232 9.62418 11.4766 9.69518 11.6125C9.21384 11.7323 8.86599 12.1766 8.88631 12.6918C8.89277 12.8552 8.93575 13.0086 9.00675 13.1445C8.52528 13.2643 8.17756 13.7086 8.19788 14.2239C8.20434 14.3873 8.24718 14.5405 8.31832 14.6765C7.83685 14.7962 7.48913 15.2406 7.50945 15.7558C7.51591 15.9192 7.55875 16.0726 7.62989 16.2084C7.14855 16.3283 6.8007 16.7726 6.82102 17.2878C6.82789 17.4617 6.87609 17.6239 6.95547 17.766C6.75085 17.7186 6.54884 17.6644 6.34985 17.6031C6.18546 17.4234 6.08109 17.1869 6.07079 16.9243C6.05047 16.409 6.39832 15.9648 6.87966 15.845C6.80852 15.7091 6.76568 15.5557 6.75922 15.3923C6.7389 14.8771 7.08675 14.4327 7.56809 14.313C7.49696 14.177 7.45411 14.0238 7.44765 13.8604C7.42733 13.3451 7.77518 12.9008 8.25652 12.7809C8.18552 12.6451 8.14254 12.4917 8.13609 12.3283C8.11576 11.813 8.46361 11.3688 8.94495 11.249C8.87395 11.1131 8.83097 10.9597 8.82452 10.7963C8.80419 10.2811 9.15205 9.83675 9.63352 9.717C9.56239 9.58104 9.5194 9.42778 9.51308 9.26436C9.49276 8.7491 9.84048 8.30484 10.322 8.18495C10.2508 8.04913 10.208 7.89574 10.2015 7.73232C10.1812 7.21706 10.529 6.7728 11.0104 6.65305C10.9392 6.51709 10.8964 6.36383 10.8899 6.20041C10.8696 5.68515 11.2175 5.24075 11.6988 5.121C11.6278 4.98518 11.5848 4.83179 11.5784 4.66837C11.5581 4.15324 11.9059 3.70885 12.3874 3.5891C12.3396 3.49791 12.2718 3.32954 12.2727 3.2113C12.4981 3.31787 12.8088 3.33435 13.0442 3.21501C13.0229 3.30634 13.0132 3.40178 13.017 3.49997Z" fill="#FDE5BD"/>
<path d="M6.85547 10.3711V11.4258C6.85547 11.62 6.69809 11.7773 6.50391 11.7773C6.30972 11.7773 6.15234 11.62 6.15234 11.4258V10.3711C6.15234 10.1769 6.30972 10.0195 6.50391 10.0195C6.69809 10.0195 6.85547 10.1769 6.85547 10.3711ZM9.76218 5.70656C9.62485 5.56937 9.40224 5.56937 9.26491 5.70656L8.51921 6.4524C8.38188 6.58973 8.38188 6.81234 8.51921 6.94953C8.6564 7.08686 8.87901 7.08686 9.01634 6.94953L9.76218 6.20383C9.89937 6.0665 9.89937 5.84389 9.76218 5.70656Z" fill="#FDF061"/>
<path d="M3.72162 9.38918C3.58429 9.5265 3.36168 9.5265 3.22435 9.38918C3.08716 9.25185 3.08716 9.02937 3.22435 8.89204L3.97019 8.14621C4.10752 8.00888 4.32999 8.00888 4.46732 8.14621C4.60465 8.28354 4.60465 8.50615 4.46732 8.64334L3.72162 9.38918ZM7.65281 8.21021L6.90697 7.46451C6.76964 7.32718 6.54703 7.32718 6.40984 7.46451C6.27251 7.6017 6.27251 7.82431 6.40984 7.96164L7.15554 8.70747C7.29287 8.84467 7.51548 8.84467 7.65281 8.70747C7.79 8.57014 7.79 8.34753 7.65281 8.21021ZM4.11576 12.7165C3.97843 12.5793 3.75595 12.5793 3.61863 12.7165C3.4813 12.8539 3.4813 13.0765 3.61863 13.2138L4.36432 13.9595C4.50165 14.0968 4.72426 14.0968 4.86159 13.9595C4.99878 13.8222 4.99878 13.5997 4.86159 13.4624L4.11576 12.7165Z" fill="#A11259"/>
<path d="M3.16406 11.25H2.10938C1.91519 11.25 1.75781 11.0926 1.75781 10.8984C1.75781 10.7043 1.91519 10.5469 2.10938 10.5469H3.16406C3.35825 10.5469 3.51562 10.7043 3.51562 10.8984C3.51562 11.0926 3.35825 11.25 3.16406 11.25Z" fill="#08E092"/>
</g>
<defs>
<clipPath id="clip0_292_1256">
<rect width="18" height="18" fill="white"/>
</clipPath>
</defs>
</svg>
