<svg width="18" height="18" viewBox="0 0 18 18" fill="none" xmlns="http://www.w3.org/2000/svg">
<g clip-path="url(#clip0_292_1279)">
<path d="M18 9C18 13.9706 13.9706 18 9 18C8.95674 18 8.91376 17.999 8.87064 17.9984C8.68744 13.2339 4.80089 9.41954 0.00755311 9.35197C0.00302124 9.23511 0 9.11797 0 9C0 4.02937 4.02937 0 9 0C13.9706 0 18 4.02937 18 9Z" fill="#E43950"/>
<path d="M16.7086 8.43378C15.3499 9.4518 13.6558 9.76999 12.1505 9.37132C12.37 10.2446 12.2046 11.0756 12.0173 12.0822C11.8696 12.8765 11.7744 13.8331 11.3862 14.6398C11.1348 15.1618 10.8345 15.6798 10.4864 16.1855C10.2399 16.5435 9.864 16.7548 9.57025 17.0976C9.35519 17.3485 9.23311 17.7351 8.99319 17.975C8.98495 17.9832 8.97644 17.9913 8.9682 17.9996C4.11774 17.9828 0.17186 14.1291 0.00610352 9.31488C0.0595245 9.25968 0.113495 9.20461 0.168152 9.14995C0.474945 8.84329 0.791626 8.73247 1.11572 8.46646C1.58607 8.08057 2.07222 7.56201 2.5666 7.26401C3.46213 6.7243 4.38484 6.33086 5.29039 6.0919C5.8018 5.95691 6.30786 5.97669 6.80032 5.94167C7.29265 5.90665 7.77151 5.81697 8.22882 5.88481C8.41353 5.91228 8.5948 5.94812 8.77196 5.99262C8.37329 4.48749 8.69148 2.79326 9.7095 1.43453C9.89339 1.18912 10.2456 1.13982 10.5224 1.31903C11.692 2.07695 12.8723 3.0285 13.9935 4.14966C15.1146 5.27081 16.0662 6.45116 16.8241 7.62093C17.0035 7.89764 16.9542 8.24989 16.7086 8.43378Z" fill="#FDE5BD"/>
<path d="M17.7284 6.27663C15.7792 7.97333 13.6032 8.86912 11.9521 8.75033C12.2193 9.43162 12.2354 10.1912 12.2178 10.9929C12.1922 12.1566 11.9786 13.4091 11.386 14.6398C11.1349 15.1618 10.8344 15.6798 10.4864 16.1855C10.2417 16.5409 9.97346 16.6793 9.68233 17.0196C9.46535 17.2731 9.23546 17.7326 8.99321 17.975C8.98483 17.9832 8.97659 17.9913 8.96822 17.9996C5.00874 17.9859 1.65173 15.4153 0.461914 11.8527C0.898483 11.2504 1.39699 10.6635 1.95564 10.1047C4.08507 7.97525 6.62387 6.71429 8.86604 6.47053C9.05281 6.45021 9.23958 6.45076 9.42319 6.47081C9.17325 4.79114 10.0722 2.47604 11.8664 0.414733C12.0789 0.170699 12.4278 0.0958548 12.7198 0.235244C13.796 0.748855 14.8293 1.46997 15.7512 2.39186C16.6732 3.31389 17.3943 4.34715 17.9079 5.4234C18.0473 5.71536 17.9725 6.06418 17.7284 6.27663Z" fill="#FFF5F5"/>
<path d="M15.76 5.39483C14.2061 6.74121 12.6971 7.67642 11.5864 8.01397C11.4061 7.72023 11.1928 7.4468 10.9445 7.19851C10.9415 7.19549 10.9385 7.19247 10.9353 7.18931C10.6423 6.89804 10.2854 6.68806 9.89905 6.56913C10.1822 5.444 11.1467 3.85015 12.5711 2.20591C12.6025 2.1698 12.6581 2.16787 12.692 2.20166C12.7209 2.2305 12.724 2.27636 12.6996 2.30918C11.1703 4.36445 10.4945 6.16648 11.147 6.81894C11.7995 7.47139 13.6016 6.79573 15.6568 5.26643C15.6897 5.24199 15.7355 5.24514 15.7644 5.27398C15.7982 5.3079 15.7962 5.36352 15.76 5.39483Z" fill="#FDE5BD"/>
<path d="M10.4861 16.1853C10.059 16.8057 9.56078 17.4074 8.99319 17.975C8.98495 17.9832 8.97658 17.9914 8.9682 17.9996C8.8718 17.9992 8.77567 17.997 8.67995 17.9937C8.50046 17.8352 8.32454 17.6706 8.15274 17.4988C5.01669 14.3626 4.04907 9.9094 5.29039 6.09206C6.31335 5.82207 7.31421 5.74874 8.22882 5.88442C6.66107 9.00385 7.25186 12.9917 9.95573 15.6956C10.1275 15.8674 10.3046 16.0306 10.4861 16.1853ZM7.0195 17.7808C6.18591 17.3651 5.40094 16.8076 4.70193 16.1084C2.27039 13.677 1.5479 10.2074 2.56688 7.26444C1.73151 7.76789 0.919891 8.39837 0.168152 9.14997C0.113495 9.20476 0.0595245 9.25983 0.00610352 9.31517C0.149063 13.4648 3.10068 16.9007 7.0195 17.7808ZM10.9446 7.19852C10.784 7.03785 10.6126 6.89186 10.4321 6.75975C9.77515 9.34676 10.0972 12.1657 11.386 14.6397C12.7353 11.8369 12.6673 8.92118 10.9446 7.19852Z" fill="#FDBF43"/>
<path d="M8.22896 5.88454C8.10577 6.12953 7.99673 6.3803 7.90019 6.63504C6.91142 6.86095 5.88681 7.26868 4.88129 7.84738C4.96808 7.25234 5.10417 6.66512 5.29039 6.09218C6.31335 5.82206 7.31435 5.74872 8.22896 5.88454ZM0.00610352 9.31516C0.0365906 10.1993 0.194244 11.0513 0.462036 11.8529C0.898331 11.2504 1.39697 10.6635 1.95563 10.1048C2.00987 10.0506 2.06439 9.99727 2.11919 9.94426C2.11974 9.03199 2.2686 8.12561 2.56688 7.26442C1.73151 7.76787 0.919891 8.39835 0.168152 9.14995C0.113495 9.20475 0.0595245 9.25981 0.00610352 9.31516Z" fill="#FDA800"/>
</g>
<defs>
<clipPath id="clip0_292_1279">
<rect width="18" height="18" fill="white"/>
</clipPath>
</defs>
</svg>
