<svg width="17" height="17" viewBox="0 0 17 17" fill="none" xmlns="http://www.w3.org/2000/svg">
<path fill-rule="evenodd" clip-rule="evenodd" d="M3.30371 4.48645L3.80621 10.4631C3.84288 10.9231 4.21871 11.2681 4.67788 11.2681H4.68121H13.7737H13.7754C14.2095 11.2681 14.5804 10.9448 14.642 10.5156L15.4337 5.04978C15.452 4.91978 15.4195 4.78978 15.3404 4.68478C15.262 4.57895 15.147 4.51062 15.017 4.49228C14.8429 4.49895 7.61538 4.48895 3.30371 4.48645ZM4.67658 12.5182C3.57908 12.5182 2.64992 11.6615 2.56075 10.5657L1.79742 1.48735L0.541582 1.27068C0.200749 1.21068 -0.0267515 0.888179 0.0315818 0.547346C0.0915818 0.206513 0.420749 -0.015154 0.754082 0.0381793L2.48742 0.338179C2.76658 0.387346 2.97908 0.619013 3.00325 0.902346L3.19908 3.23651C15.0957 3.24151 15.1341 3.24735 15.1916 3.25401C15.6558 3.32151 16.0641 3.56401 16.3424 3.93735C16.6208 4.30985 16.7374 4.76901 16.6708 5.22901L15.8799 10.694C15.7308 11.734 14.8274 12.5182 13.7774 12.5182H13.7732H4.68325H4.67658Z" fill="white"/>
<path fill-rule="evenodd" clip-rule="evenodd" d="M12.4367 7.56671H10.1267C9.78088 7.56671 9.50171 7.28671 9.50171 6.94171C9.50171 6.59671 9.78088 6.31671 10.1267 6.31671H12.4367C12.7817 6.31671 13.0617 6.59671 13.0617 6.94171C13.0617 7.28671 12.7817 7.56671 12.4367 7.56671Z" fill="white"/>
<path fill-rule="evenodd" clip-rule="evenodd" d="M4.31769 14.7819C4.56853 14.7819 4.77103 14.9844 4.77103 15.2352C4.77103 15.486 4.56853 15.6894 4.31769 15.6894C4.06603 15.6894 3.86353 15.486 3.86353 15.2352C3.86353 14.9844 4.06603 14.7819 4.31769 14.7819Z" fill="white"/>
<mask id="mask0_722_2455" style="mask-type:luminance" maskUnits="userSpaceOnUse" x="3" y="14" width="2" height="2">
<path fill-rule="evenodd" clip-rule="evenodd" d="M3.86108 15.2349C3.86108 15.4866 4.06358 15.6899 4.31608 15.6899C4.56692 15.6899 4.76942 15.4866 4.76942 15.2349C4.76942 14.9841 4.56692 14.7816 4.31608 14.7816C4.06358 14.7816 3.86108 14.9841 3.86108 15.2349Z" fill="white"/>
</mask>
<g mask="url(#mask0_722_2455)">
<path fill-rule="evenodd" clip-rule="evenodd" d="M-0.305664 19.8557H8.93517V10.6149H-0.305664V19.8557Z" fill="white"/>
</g>
<path fill-rule="evenodd" clip-rule="evenodd" d="M4.31371 15.0641C4.21954 15.0641 4.14288 15.1408 4.14288 15.2349C4.14288 15.4241 4.48538 15.4241 4.48538 15.2349C4.48538 15.1408 4.40788 15.0641 4.31371 15.0641ZM4.31173 16.3141C3.71673 16.3141 3.2334 15.8299 3.2334 15.2349C3.2334 14.6399 3.71673 14.1566 4.31173 14.1566C4.90673 14.1566 5.3909 14.6399 5.3909 15.2349C5.3909 15.8299 4.90673 16.3141 4.31173 16.3141Z" fill="white"/>
<path fill-rule="evenodd" clip-rule="evenodd" d="M13.7161 14.7817C13.967 14.7817 14.1703 14.9842 14.1703 15.2351C14.1703 15.4859 13.967 15.6892 13.7161 15.6892C13.4645 15.6892 13.262 15.4859 13.262 15.2351C13.262 14.9842 13.4645 14.7817 13.7161 14.7817Z" fill="white"/>
<mask id="mask1_722_2455" style="mask-type:luminance" maskUnits="userSpaceOnUse" x="13" y="14" width="2" height="2">
<path fill-rule="evenodd" clip-rule="evenodd" d="M13.2646 15.235C13.2646 15.4867 13.4671 15.69 13.7188 15.69C13.9688 15.69 14.173 15.4867 14.173 15.235C14.173 14.9842 13.9688 14.7817 13.7188 14.7817C13.4671 14.7817 13.2646 14.9842 13.2646 15.235Z" fill="white"/>
</mask>
<g mask="url(#mask1_722_2455)">
<path fill-rule="evenodd" clip-rule="evenodd" d="M9.0979 19.8558H18.3396V10.6149H9.0979V19.8558Z" fill="white"/>
</g>
<path fill-rule="evenodd" clip-rule="evenodd" d="M13.7195 15.0643C13.6262 15.0643 13.5495 15.141 13.5495 15.2352C13.5504 15.426 13.892 15.4243 13.8912 15.2352C13.8912 15.141 13.8137 15.0643 13.7195 15.0643ZM13.718 16.3144C13.123 16.3144 12.6396 15.8302 12.6396 15.2352C12.6396 14.6402 13.123 14.1569 13.718 14.1569C14.3138 14.1569 14.798 14.6402 14.798 15.2352C14.798 15.8302 14.3138 16.3144 13.718 16.3144Z" fill="white"/>
</svg>
