<svg width="20" height="21" viewBox="0 0 20 21" fill="none" xmlns="http://www.w3.org/2000/svg">
<path fill-rule="evenodd" clip-rule="evenodd" d="M9.34286 9.66345L8.47036 12.4526L11.2587 11.5793L12.132 8.79012L9.34286 9.66345ZM7.51706 14.03C7.35373 14.03 7.19373 13.9658 7.07456 13.8475C6.9104 13.6825 6.8504 13.44 6.9204 13.2192L8.2479 8.97833C8.30873 8.78166 8.46206 8.62916 8.65706 8.56833L12.8979 7.24083C13.1204 7.16999 13.3621 7.23083 13.5271 7.39499C13.6912 7.55999 13.7512 7.80249 13.6812 8.02333L12.3546 12.2642C12.2937 12.46 12.1396 12.6133 11.9446 12.6742L7.70373 14.0017C7.64206 14.0208 7.57873 14.03 7.51706 14.03Z" fill="#EEF5EE"/>
<mask id="mask0_549_834" style="mask-type:luminance" maskUnits="userSpaceOnUse" x="1" y="1" width="18" height="19">
<path fill-rule="evenodd" clip-rule="evenodd" d="M1.66663 1.98669H18.9348V19.2548H1.66663V1.98669Z" fill="white"/>
</mask>
<g mask="url(#mask0_549_834)">
<path fill-rule="evenodd" clip-rule="evenodd" d="M10.3006 3.23661C6.22896 3.23661 2.91646 6.54995 2.91646 10.6208C2.91646 14.6924 6.22896 18.0049 10.3006 18.0049C14.3723 18.0049 17.6848 14.6924 17.6848 10.6208C17.6848 6.54995 14.3723 3.23661 10.3006 3.23661ZM10.3005 19.255C5.53972 19.255 1.66638 15.3817 1.66638 10.6209C1.66638 5.86003 5.53972 1.98669 10.3005 1.98669C15.0614 1.98669 18.9347 5.86003 18.9347 10.6209C18.9347 15.3817 15.0614 19.255 10.3005 19.255Z" fill="#EEF5EE"/>
</g>
</svg>
