<svg width="12" height="14" viewBox="0 0 12 14" fill="none" xmlns="http://www.w3.org/2000/svg">
<path fill-rule="evenodd" clip-rule="evenodd" d="M5.66711 4.66667C5.02378 4.66667 4.50045 5.19 4.50045 5.834C4.50045 6.47733 5.02378 7 5.66711 7C6.31045 7 6.83378 6.47733 6.83378 5.834C6.83378 5.19 6.31045 4.66667 5.66711 4.66667ZM5.66716 8.00002C4.47249 8.00002 3.50049 7.02869 3.50049 5.83402C3.50049 4.63869 4.47249 3.66669 5.66716 3.66669C6.86182 3.66669 7.83382 4.63869 7.83382 5.83402C7.83382 7.02869 6.86182 8.00002 5.66716 8.00002Z" fill="#B6349A"/>
<mask id="mask0_722_2485" style="mask-type:luminance" maskUnits="userSpaceOnUse" x="0" y="0" width="12" height="14">
<path fill-rule="evenodd" clip-rule="evenodd" d="M0.166748 0.333313H11.1664V13.3333H0.166748V0.333313Z" fill="white"/>
</mask>
<g mask="url(#mask0_722_2485)">
<path fill-rule="evenodd" clip-rule="evenodd" d="M5.66646 1.33333C3.18513 1.33333 1.16646 3.37133 1.16646 5.87533C1.16646 9.06133 4.9158 12.1653 5.66646 12.3307C6.41713 12.1647 10.1665 9.06067 10.1665 5.87533C10.1665 3.37133 8.1478 1.33333 5.66646 1.33333ZM5.66626 13.3333C4.47026 13.3333 0.16626 9.63198 0.16626 5.87531C0.16626 2.81931 2.63359 0.333313 5.66626 0.333313C8.69893 0.333313 11.1663 2.81931 11.1663 5.87531C11.1663 9.63198 6.86226 13.3333 5.66626 13.3333Z" fill="#B6349A"/>
</g>
</svg>
