<svg width="14" height="14" viewBox="0 0 14 14" fill="none" xmlns="http://www.w3.org/2000/svg">
<mask id="mask0_292_178" style="mask-type:luminance" maskUnits="userSpaceOnUse" x="0" y="8" width="11" height="6">
<path fill-rule="evenodd" clip-rule="evenodd" d="M0.328125 8.30481H10.4507V13.0379H0.328125V8.30481Z" fill="white"/>
</mask>
<g mask="url(#mask0_292_178)">
<path fill-rule="evenodd" clip-rule="evenodd" d="M5.3869 9.30481C3.53423 9.30481 1.32556 9.54281 1.32556 10.6795C1.32556 11.5808 2.69223 12.0381 5.3869 12.0381C8.08156 12.0381 9.44823 11.5761 9.44823 10.6661C9.44823 9.76281 8.08156 9.30481 5.3869 9.30481ZM5.3869 13.0381C4.00289 13.0381 0.325562 13.0381 0.325562 10.6795C0.325562 8.30481 4.13489 8.30481 5.3869 8.30481C7.55956 8.30481 10.4482 8.54948 10.4482 10.6661C10.4482 13.0381 6.6389 13.0381 5.3869 13.0381Z" fill="#212121"/>
</g>
<mask id="mask1_292_178" style="mask-type:luminance" maskUnits="userSpaceOnUse" x="10" y="7" width="4" height="5">
<path fill-rule="evenodd" clip-rule="evenodd" d="M10.8906 7.98895H13.6465V11.3073H10.8906V7.98895Z" fill="white"/>
</mask>
<g mask="url(#mask1_292_178)">
<path fill-rule="evenodd" clip-rule="evenodd" d="M12.2575 11.3073C12.0555 11.3073 11.8655 11.184 11.7901 10.9846C11.6921 10.7266 11.8221 10.4373 12.0801 10.34C12.6468 10.1253 12.6468 9.86331 12.6468 9.75131C12.6468 9.37331 12.1995 9.11464 11.3175 8.98331C11.0441 8.94197 10.8555 8.68731 10.8961 8.41464C10.9375 8.14131 11.1968 7.95797 11.4648 7.99331C13.2688 8.26331 13.6468 9.09864 13.6468 9.75131C13.6468 10.2373 13.4368 10.8953 12.4348 11.2746C12.3768 11.2966 12.3168 11.3073 12.2575 11.3073Z" fill="#212121"/>
</g>
<path fill-rule="evenodd" clip-rule="evenodd" d="M9.98656 6.4213C9.74123 6.4213 9.52723 6.24063 9.4919 5.99063C9.4539 5.7173 9.6439 5.46397 9.91723 5.42597C10.7492 5.3093 11.3772 4.5873 11.3786 3.74597C11.3786 2.90997 10.7799 2.20463 9.95656 2.06997C9.6839 2.02463 9.49923 1.76797 9.5439 1.4953C9.58856 1.22263 9.84656 1.0393 10.1179 1.08263C11.4279 1.2973 12.3786 2.41797 12.3786 3.74663C12.3759 5.0833 11.3779 6.2313 10.0566 6.41663C10.0332 6.41997 10.0099 6.4213 9.98656 6.4213Z" fill="#212121"/>
<path fill-rule="evenodd" clip-rule="evenodd" d="M5.39019 1.33352C4.05352 1.33352 2.96619 2.42085 2.96619 3.75685C2.96619 5.09285 4.05352 6.18018 5.39019 6.18018H5.41085C6.05352 6.17752 6.65885 5.92485 7.11285 5.46685C7.56752 5.01018 7.81619 4.40285 7.81352 3.75885C7.81352 2.42085 6.72619 1.33352 5.39019 1.33352ZM5.39019 7.1801C3.50219 7.1801 1.96619 5.6441 1.96619 3.75677C1.96619 1.86944 3.50219 0.333435 5.39019 0.333435C7.27752 0.333435 8.81352 1.86944 8.81352 3.75677C8.81752 4.6661 8.46485 5.52477 7.82219 6.17144C7.18085 6.81877 6.32419 7.17677 5.41285 7.1801H5.39019Z" fill="#212121"/>
</svg>
