<svg width="50" height="50" viewBox="0 0 50 50" fill="none" xmlns="http://www.w3.org/2000/svg">
<path d="M24.998 0C35.9547 2.90709e-10 42.0433 -1.27727e-05 46.0205 3.97949C50.0001 7.95677 50 14.0454 50 25C50 35.9544 49.9999 42.0451 46.0205 46.0225C42.0433 49.9997 35.9547 50 24.998 50C14.0434 50 7.95415 49.9975 3.97461 46.0225C-4.60276e-05 42.0451 0 35.9543 0 25C0 14.0479 -0.000218499 7.9545 3.97461 3.97949C7.95415 -4.70352e-05 14.0434 0 24.998 0ZM28.2432 18.0752L27.3887 21.7891L12.2979 21.7588L12.2959 25.4746L26.5391 25.502L25.7002 29.2119L12.2959 29.1836V32.8975L24.8613 32.9248H24.8408C24.3545 34.7974 25.7248 36.654 27.6064 36.6543H30.2158L31.6572 32.9248H24.8613L25.7002 29.2158L34.2412 29.2314L35.5664 25.5186L26.5566 25.502L27.4004 21.7891L39.5957 21.7295L41.1064 18.0322L28.2432 18.0752ZM12.2959 18.0342L28.2412 18.0615L28.3838 17.4141C28.7406 15.8504 27.5995 14.3477 26.0449 14.3477L12.2979 14.3184L12.2959 18.0342Z" fill="#B6349A"/>
</svg>
