<svg width="18" height="18" viewBox="0 0 18 18" fill="none" xmlns="http://www.w3.org/2000/svg">
<mask id="mask0_292_127" style="mask-type:luminance" maskUnits="userSpaceOnUse" x="0" y="0" width="17" height="17">
<path fill-rule="evenodd" clip-rule="evenodd" d="M0.671875 0.666992H16.9025V16.8978H0.671875V0.666992Z" fill="white"/>
</mask>
<g mask="url(#mask0_292_127)">
<path fill-rule="evenodd" clip-rule="evenodd" d="M8.79027 1.91718C5.00444 1.91718 1.92444 4.99634 1.92444 8.78218C1.92444 12.568 5.00444 15.648 8.79027 15.648C12.5753 15.648 15.6553 12.568 15.6553 8.78218C15.6553 4.99634 12.5753 1.91718 8.79027 1.91718ZM8.79027 16.898C4.31527 16.898 0.674438 13.2572 0.674438 8.78218C0.674438 4.30718 4.31527 0.667175 8.79027 0.667175C13.2653 0.667175 16.9053 4.30718 16.9053 8.78218C16.9053 13.2572 13.2653 16.898 8.79027 16.898Z" fill="#B6349A"/>
</g>
<mask id="mask1_292_127" style="mask-type:luminance" maskUnits="userSpaceOnUse" x="13" y="13" width="5" height="5">
<path fill-rule="evenodd" clip-rule="evenodd" d="M13.3724 13.756H17.5591V17.935H13.3724V13.756Z" fill="white"/>
</mask>
<g mask="url(#mask1_292_127)">
<path fill-rule="evenodd" clip-rule="evenodd" d="M16.9343 17.935C16.7751 17.935 16.6151 17.8742 16.4926 17.7525L13.556 14.8242C13.3118 14.58 13.311 14.1842 13.5551 13.94C13.7985 13.6942 14.1943 13.6958 14.4393 13.9383L17.376 16.8675C17.6201 17.1117 17.621 17.5067 17.3768 17.7508C17.2551 17.8742 17.0943 17.935 16.9343 17.935Z" fill="#B6349A"/>
</g>
</svg>
