<svg width="18" height="18" viewBox="0 0 18 18" fill="none" xmlns="http://www.w3.org/2000/svg">
<g clip-path="url(#clip0_292_1232)">
<path d="M18 9C18 13.9706 13.9706 18 9 18C4.02937 18 0 13.9706 0 9C0 4.02937 4.02937 0 9 0C13.9706 0 18 4.02937 18 9Z" fill="#84DEEA"/>
<path d="M6.61909 3.59389C6.68707 3.52166 6.80133 3.51987 6.87137 3.59005L7.30093 4.01961C7.4248 4.14348 7.48221 4.31899 7.45529 4.49202L7.37921 4.98243C7.37193 5.02939 7.41245 5.07004 7.45955 5.06276L7.94995 4.98668C8.12299 4.95977 8.29849 5.01717 8.42236 5.1409C8.54623 5.26477 8.6035 5.44028 8.57672 5.61345L8.50064 6.10386C8.49336 6.15096 8.53387 6.19147 8.58084 6.18406L9.07124 6.10798C9.24442 6.0812 9.41992 6.13846 9.54379 6.26233C9.66753 6.3862 9.72493 6.56171 9.69801 6.73475L9.62193 7.22528C9.61465 7.27225 9.6553 7.31276 9.70227 7.30548L10.1927 7.2294C10.3657 7.20249 10.5412 7.25989 10.6651 7.38376C10.789 7.50763 10.8464 7.68314 10.8194 7.85617L10.7434 8.34658C10.7361 8.39368 10.7766 8.43419 10.8236 8.42691L11.314 8.35083C11.4871 8.32392 11.6626 8.38132 11.7865 8.50519C11.9104 8.62893 11.9677 8.80457 11.9409 8.9776L11.8648 9.46801C11.8575 9.51497 11.898 9.55562 11.945 9.54821L12.4354 9.47213C12.6086 9.44535 12.7841 9.50261 12.9078 9.62648C13.0317 9.75035 13.0891 9.92586 13.0622 10.099L12.9861 10.5894C12.9788 10.6364 13.0193 10.6769 13.0664 10.6696L13.5568 10.5936C13.7299 10.5666 13.9054 10.624 14.0292 10.7479L14.4158 11.1344C14.4856 11.2043 14.4842 11.3178 14.4128 11.3859L12.7285 12.9273L5.07703 5.27604L6.61909 3.59389Z" fill="#962437"/>
<path d="M16.0785 9.91598C16.0785 11.3436 14.6041 10.7947 12.7853 10.7947C10.9665 10.7947 9.49218 11.3436 9.49218 9.91598C9.49218 8.48816 10.9665 6.9027 12.7853 6.9027C14.6041 6.9027 16.0785 8.48816 16.0785 9.91598ZM14.8598 5.15189C16.1459 3.8658 16.0674 1.70218 15.0579 0.692541C14.0482 -0.316965 13.3938 1.11373 12.1079 2.39982C10.8218 3.6859 9.39097 4.34028 10.4006 5.34992C11.4101 6.35943 13.5737 6.43784 14.8598 5.15189ZM8.29 4.41031C7.01421 3.7694 6.84296 5.3333 6.0264 6.95846C5.20998 8.58375 4.05752 9.65478 5.3333 10.2957C6.60909 10.9366 8.6877 10.3308 9.50426 8.70569C10.3207 7.0804 9.56592 5.05123 8.29 4.41031Z" fill="#FDBF43"/>
<path d="M16.0785 9.91598C16.0785 11.3436 14.6041 10.7947 12.7853 10.7947C10.9665 10.7947 9.49217 11.3436 9.49217 9.91598C9.49217 9.75475 9.51113 9.5916 9.54697 9.42901C9.82945 10.3284 11.1718 9.89647 12.7853 9.89647C14.3988 9.89647 15.7412 10.3284 16.0237 9.42901C16.0595 9.5916 16.0785 9.75475 16.0785 9.91598ZM10.7836 5.65534C10.3475 4.81956 11.602 4.17576 12.7429 3.03483C13.8838 1.8939 14.5276 0.639395 15.3633 1.07569C15.2737 0.935202 15.1718 0.806524 15.0578 0.692541C14.0482 -0.316965 13.3938 1.11373 12.1079 2.39982C10.8218 3.6859 9.39096 4.34028 10.4006 5.34978C10.5145 5.46377 10.6433 5.56566 10.7836 5.65534ZM6.02654 6.95859C5.20998 8.58375 4.05751 9.65478 5.3333 10.2957C5.47736 10.3681 5.63158 10.4244 5.79308 10.4653C5.11618 9.80913 6.10468 8.80347 6.82895 7.36179C7.55336 5.91997 7.77007 4.52663 8.70047 4.67797C8.57124 4.57277 8.43405 4.48269 8.28999 4.41031C7.01421 3.7694 6.84296 5.3333 6.02654 6.95859Z" fill="#FCB30B"/>
<path d="M13.6835 7.03343C13.8922 7.09496 14.0926 7.17667 14.2822 7.27513V10.8736C14.0926 10.8605 13.8922 10.8445 13.6835 10.8303V7.03343ZM12.486 6.91739V10.7994C12.5846 10.7964 12.6844 10.7946 12.7853 10.7946C12.8863 10.7946 12.9861 10.7964 13.0847 10.7994V6.91739C12.9861 6.90791 12.8864 6.90269 12.7853 6.90269C12.6844 6.90269 12.5846 6.90791 12.486 6.91739ZM14.881 7.66789V10.8984C15.1083 10.8979 15.3099 10.8802 15.4797 10.8321V8.28629C15.3097 8.06134 15.1083 7.85205 14.881 7.66789ZM10.0909 8.28629V10.8321C10.261 10.8802 10.4624 10.8979 10.6897 10.8984V7.66789C10.4624 7.85205 10.261 8.06134 10.0909 8.28629ZM11.2885 10.8736C11.4781 10.8607 11.6785 10.8446 11.8872 10.8303V7.03343C11.6785 7.09496 11.4781 7.17667 11.2885 7.27513V10.8736ZM11.4476 3.00969C11.29 3.14729 11.1368 3.27748 10.9936 3.40245L13.538 5.94688C13.7418 5.88248 13.9412 5.79857 14.1324 5.69447L11.4476 3.00969ZM12.3162 2.18475C12.2485 2.25658 12.1793 2.3284 12.1079 2.39981C12.0365 2.47122 11.9647 2.54057 11.8928 2.60814L14.6378 5.35321C14.7143 5.29018 14.7884 5.22316 14.8598 5.15189C14.9312 5.08047 14.9981 5.00618 15.0613 4.92982L12.3162 2.18475ZM12.837 6.09273L10.5526 3.80826C10.3924 3.96935 10.2623 4.12439 10.1761 4.27861L11.9762 6.07872C12.2557 6.11772 12.5461 6.12308 12.837 6.09273ZM15.7868 2.26825L13.9866 0.46814C13.8325 0.554382 13.6774 0.684296 13.5163 0.844559L15.8007 3.12903C15.8312 2.83803 15.8257 2.54758 15.7868 2.26825ZM12.7178 1.73953L15.4026 4.42432C15.5065 4.23315 15.5904 4.03375 15.655 3.82996L13.1105 1.28552C12.9856 1.42889 12.8552 1.58188 12.7178 1.73953ZM5.28401 8.26074L8.49944 9.87614C8.67261 9.75076 8.83548 9.60849 8.98421 9.4496L5.59149 7.74507C5.48506 7.92525 5.38069 8.09705 5.28401 8.26074ZM6.02655 6.95859C5.98123 7.04868 5.93481 7.13712 5.88785 7.22391L9.35678 8.96661C9.40952 8.88271 9.45895 8.79591 9.50427 8.70569C9.54959 8.61546 9.58969 8.524 9.62553 8.43158L6.1566 6.68887C6.11499 6.77841 6.07187 6.86836 6.02655 6.95859ZM4.78345 9.34935L7.0583 10.4922C7.33571 10.4414 7.61325 10.3553 7.87981 10.2348L4.99301 8.78465C4.89153 8.9879 4.81682 9.1759 4.78345 9.34935ZM9.47749 5.6769L7.2025 4.53404C7.0833 4.66437 6.97714 4.83658 6.87456 5.03941L9.76122 6.48961C9.69873 6.20383 9.60219 5.92986 9.47749 5.6769ZM6.62791 5.58557C6.55431 5.7608 6.47878 5.94702 6.39789 6.13997L9.7906 7.8445C9.82933 7.63026 9.84622 7.41452 9.84334 7.20084L6.62791 5.58557Z" fill="#FC9302"/>
<path d="M0.0206299 9.6022C0.483429 9.19447 0.955017 8.79649 1.43649 8.40977C1.77817 8.13525 2.12424 7.86581 2.47498 7.60214L3.58556 6.76759L4.82852 5.52462L5.66856 4.63199C5.73654 4.55975 5.8508 4.5581 5.92097 4.62814L6.30673 5.0139C6.4306 5.13777 6.48787 5.31341 6.46109 5.48645L6.38501 5.97685C6.37759 6.02382 6.41824 6.06433 6.46521 6.05705L6.95561 5.98097C7.12878 5.95419 7.30429 6.01146 7.42802 6.13533C7.5519 6.2592 7.6093 6.4347 7.58238 6.60788L7.5063 7.09828C7.49902 7.14525 7.53967 7.18576 7.58664 7.17848L8.07704 7.1024C8.25008 7.07548 8.42558 7.13289 8.54945 7.25676C8.67332 7.38063 8.73073 7.55613 8.70381 7.72917L8.62773 8.21957C8.62045 8.26667 8.66096 8.30719 8.70793 8.29991L9.19833 8.22383C9.37151 8.19691 9.54701 8.25432 9.67088 8.37819C9.79475 8.50206 9.85202 8.67756 9.82524 8.8506L9.74916 9.341C9.74188 9.38797 9.78239 9.42862 9.82936 9.4212L10.3198 9.34512C10.4929 9.31834 10.6683 9.37561 10.7922 9.49948C10.916 9.62335 10.9734 9.79886 10.9465 9.97203L10.8705 10.4624C10.8632 10.5094 10.9037 10.5499 10.9508 10.5426L11.4412 10.4665C11.6142 10.4396 11.7897 10.497 11.9136 10.6209C12.0375 10.7448 12.0947 10.9203 12.068 11.0933L11.9919 11.5837C11.9846 11.6307 12.0251 11.6713 12.0721 11.6641L12.5626 11.588C12.7357 11.5611 12.9112 11.6185 13.035 11.7423L13.3718 12.0791C13.4417 12.1488 13.4403 12.2625 13.3687 12.3307L12.4808 13.1767L12.4799 13.1759L11.237 14.4189L11.2294 14.4266L10.4013 15.5284C10.1385 15.8783 9.86987 16.2232 9.59618 16.564C9.20959 17.0454 8.81161 17.517 8.40402 17.9798C3.91048 17.6859 0.317398 14.0948 0.0206299 9.6022Z" fill="#E43950"/>
<path d="M11.4934 12.7197C11.3526 12.8432 11.1372 12.8275 11.0048 12.6951L5.47069 7.16117C5.3335 7.02384 5.11089 7.02384 4.97356 7.16117C4.83623 7.29836 4.83623 7.52097 4.97356 7.6583L10.516 13.2008C10.6534 13.3381 10.6534 13.5607 10.516 13.698C10.3788 13.8352 10.1562 13.8352 10.0189 13.698L4.40831 8.08746C4.28444 7.96359 4.08847 7.94985 3.94853 8.05505L3.36571 8.49299C2.79126 8.92475 2.22903 9.37162 1.67903 9.83236C1.19083 10.2412 0.713196 10.662 0.245178 11.0929C0.130234 10.6099 0.0542908 10.1118 0.0205078 9.6022C0.483307 9.19447 0.955032 8.79649 1.43651 8.40977C1.77818 8.13525 2.12425 7.86581 2.47499 7.60214L3.58557 6.76759L4.82854 5.52462L5.66858 4.63212C5.73656 4.55975 5.85081 4.5581 5.92099 4.62827L6.30675 5.01403C6.43062 5.1379 6.48788 5.31341 6.46111 5.48644L6.43488 5.65508L5.95312 6.16691C5.82294 6.30534 5.82623 6.52218 5.96054 6.65649L11.5104 12.2065C11.6532 12.3492 11.6475 12.5842 11.4934 12.7197ZM1.29369 11.4362C0.976318 11.7535 0.807678 12.1797 0.776093 12.6605C1.68013 14.6883 3.31174 16.3199 5.33954 17.224C5.82033 17.1924 6.24646 17.0237 6.56383 16.7064C7.52486 15.7453 7.12427 13.7865 5.66885 12.3312C4.21358 10.8758 2.25471 10.4752 1.29369 11.4362Z" fill="#C92E43"/>
</g>
<defs>
<clipPath id="clip0_292_1232">
<rect width="18" height="18" fill="white"/>
</clipPath>
</defs>
</svg>
