<svg width="18" height="18" viewBox="0 0 18 18" fill="none" xmlns="http://www.w3.org/2000/svg">
<g clip-path="url(#clip0_292_1288)">
<path d="M18 9C18 13.9706 13.9706 18 8.99999 18C6.92138 18 5.0077 17.295 3.48417 16.1116C2.89929 15.1019 2.12379 14.2166 1.20698 13.5045C0.43959 12.1797 0 10.6412 0 9C0 4.02937 4.02937 0 8.99999 0C13.9706 0 18 4.02937 18 9Z" fill="#E31E7F"/>
<path d="M11.7551 7.59086C11.3339 7.4571 11.0082 7.25619 10.8052 7.02946C9.97696 7.29025 9.26862 7.29038 9.08968 6.99224C8.91074 6.6941 9.31517 6.18763 10.0338 5.74406C9.9359 5.4694 9.93246 5.12168 10.0469 4.74416C10.3127 3.86581 11.1132 3.15966 11.8349 3.16694C12.1065 3.16969 12.3282 3.27323 12.4849 3.44791C12.5088 3.42416 12.5333 3.40026 12.5585 3.37664C13.3584 2.62174 14.4452 2.24024 14.986 2.52479C15.2093 2.6422 15.3042 2.85506 15.2828 3.11736C15.3441 3.08619 15.4068 3.05584 15.4712 3.02645C16.5571 2.53207 17.6611 2.50405 17.9371 2.96397C18.213 3.42374 17.5564 4.19732 16.4706 4.6917C16.4062 4.72109 16.3416 4.7487 16.2772 4.77465C16.5369 4.9091 16.6833 5.09847 16.6665 5.3252C16.626 5.87438 15.646 6.43386 14.4778 6.57517C14.4411 6.57957 14.4047 6.58355 14.3686 6.58698C14.4439 6.79888 14.4149 7.01655 14.2624 7.21238C13.8573 7.73258 12.7348 7.90205 11.7551 7.59086Z" fill="#08B772"/>
<path d="M17.0048 3.87694C16.2801 3.99216 15.1985 4.42845 13.9516 5.08859C13.834 4.90883 13.6911 4.74101 13.5238 4.59036C14.8937 3.8573 16.096 3.36951 16.9036 3.24097C17.0793 3.21309 17.244 3.33284 17.2722 3.50835C17.3001 3.68399 17.1803 3.84906 17.0048 3.87694Z" fill="#06995F"/>
<path d="M12.1215 6.68257C11.6807 6.71278 11.3039 6.64549 11.032 6.50912C10.3571 7.05583 9.69837 7.31607 9.42247 7.10444C9.14658 6.89268 9.33678 6.27319 9.84243 5.59671C9.65058 5.37726 9.5197 5.05508 9.48743 4.66191C9.41217 3.7473 9.8975 2.79657 10.5714 2.53839C10.825 2.44116 11.0693 2.45613 11.2792 2.56119C11.2928 2.53015 11.3068 2.49898 11.3215 2.4678C11.7884 1.47189 12.6593 0.718092 13.2667 0.78401C13.5175 0.811338 13.6839 0.974486 13.7603 1.22635C13.8059 1.17485 13.8531 1.12349 13.9023 1.07254C14.7308 0.214094 15.7473 -0.217394 16.1729 0.109037C16.5985 0.435469 16.2718 1.39609 15.4433 2.25467C15.3941 2.30562 15.3442 2.35492 15.294 2.40271C15.5847 2.43251 15.7904 2.55487 15.8581 2.77185C16.0221 3.29754 15.3161 4.17782 14.2813 4.73813C14.2488 4.7557 14.2164 4.77273 14.1839 4.78935C14.3318 4.95868 14.3847 5.17181 14.3148 5.40994C14.1292 6.04248 13.1471 6.61239 12.1215 6.68257Z" fill="#04D481"/>
<path d="M14.3041 2.46148C13.1693 3.13206 11.3434 5.18911 9.65234 7.70196C9.55305 7.84945 9.35296 7.88859 9.20547 7.7893C9.19394 7.78148 9.18295 7.77296 9.17265 7.76404C9.05263 7.65884 9.02667 7.47839 9.11813 7.34243C10.8585 4.75625 12.7656 2.62271 13.9766 1.90709C14.1297 1.81672 14.327 1.86754 14.4175 2.02052C14.508 2.17364 14.4572 2.37098 14.3041 2.46148Z" fill="#08B772"/>
<path d="M10.5833 6.95173C11.5248 7.84808 11.2683 9.56936 10.0389 10.6061L3.49696 16.1213C2.57301 15.4064 1.79188 14.5158 1.20398 13.4993L6.19836 6.9494C7.17353 5.67059 8.88012 5.33001 9.82165 6.22636L10.5833 6.95173Z" fill="#FDA800"/>
<path d="M10.5832 6.95175L10.535 6.90574C9.837 6.24107 8.71859 6.25714 7.78942 6.83076C7.75001 6.85493 7.74356 6.90959 7.77693 6.94172L8.35536 7.49777C8.48417 7.6204 8.48911 7.8242 8.36648 7.95301C8.24385 8.08169 8.04005 8.08677 7.91123 7.96414L7.25947 7.3375C7.23159 7.31072 7.1871 7.311 7.16032 7.33888C7.07325 7.42924 6.99017 7.52592 6.91175 7.62864L4.67261 10.5654C4.65091 10.5939 4.65393 10.634 4.67975 10.6587L5.40086 11.3531C5.52954 11.4758 5.53462 11.6796 5.41198 11.8084C5.28935 11.9372 5.08555 11.9421 4.95674 11.8195L4.29838 11.1855C4.26803 11.1562 4.21914 11.1599 4.1936 11.1934L2.70509 13.1457C2.68339 13.1741 2.68655 13.2145 2.71251 13.2392L2.98469 13.4984C3.10898 13.6166 3.1282 13.8137 3.0182 13.9452C2.89763 14.0894 2.68257 14.0999 2.54867 13.9723L2.33087 13.7649C2.30052 13.7361 2.25191 13.7399 2.2265 13.7733L1.77441 14.3663C2.26578 15.027 2.84599 15.6176 3.49679 16.1213L10.0387 10.6059C11.2682 9.56938 11.5248 7.84809 10.5832 6.95175ZM3.6528 15.2295C3.53017 15.3583 3.32637 15.3634 3.19755 15.2408L2.91246 14.9692C2.78364 14.8465 2.7787 14.6427 2.90134 14.514C3.02397 14.3852 3.22777 14.3803 3.35644 14.5028L3.64168 14.7744C3.77049 14.8971 3.77543 15.1009 3.6528 15.2295ZM5.24142 13.8687C5.11879 13.9976 4.91499 14.0025 4.78618 13.8799L4.31308 13.4294C4.18426 13.3068 4.17932 13.103 4.30195 12.9742C4.42459 12.8455 4.62839 12.8404 4.75706 12.9631L5.23016 13.4135C5.35898 13.5361 5.36392 13.7399 5.24142 13.8687ZM7.46148 11.537C7.33898 11.6658 7.13505 11.6708 7.00637 11.5482L6.53328 11.0977C6.40446 10.9751 6.39952 10.7713 6.52215 10.6425C6.64479 10.5137 6.84858 10.5087 6.97726 10.6313L7.45036 11.0818C7.57917 11.2044 7.58412 11.4082 7.46148 11.537ZM8.60571 9.95898C8.48307 10.0878 8.27941 10.0929 8.1506 9.97024L7.4895 9.34086C7.36082 9.21823 7.35574 9.01443 7.47837 8.88561C7.60101 8.75694 7.8048 8.75186 7.93362 8.87449L8.59458 9.50387C8.7234 9.6265 8.72834 9.8303 8.60571 9.95898ZM10.0574 9.56306C9.93491 9.69174 9.73112 9.69682 9.6023 9.57418L9.12921 9.12374C9.00039 9.00111 8.99545 8.79731 9.11808 8.6685C9.24072 8.53968 9.44451 8.53474 9.57319 8.65737L10.0463 9.10781C10.1751 9.23045 10.18 9.43424 10.0574 9.56306Z" fill="#FDBF43"/>
</g>
<defs>
<clipPath id="clip0_292_1288">
<rect width="18" height="18" fill="white"/>
</clipPath>
</defs>
</svg>
