<svg width="18" height="18" viewBox="0 0 18 18" fill="none" xmlns="http://www.w3.org/2000/svg">
<g clip-path="url(#clip0_292_1069)">
<path d="M18 9C18 13.9706 13.9706 18 9 18C4.02937 18 0 13.9706 0 9C0 4.02937 4.02937 0 9 0C13.9706 0 18 4.02937 18 9Z" fill="#84DEEA"/>
<path d="M13.2539 13.7461C13.2539 15.0005 12.997 16.1947 12.5335 17.2796C11.4486 17.7431 10.2544 18 9 18C7.26334 18 5.64189 17.5075 4.26668 16.6556C4.43298 16.3429 4.52637 15.9945 4.52637 15.627C4.52637 14.2776 3.27502 13.1836 1.73145 13.1836C1.50238 13.1836 1.28004 13.2082 1.06705 13.2536C0.386444 11.9869 0 10.5386 0 9.00001C0 7.74565 0.256943 6.55143 0.720428 5.46653C1.33896 5.20231 1.99292 5.00552 2.67325 4.88495C2.77913 4.65574 2.81401 4.27191 2.77679 3.73784C2.74603 3.29577 2.88913 2.86813 3.17999 2.53373C3.47086 2.19934 3.87447 1.99829 4.31653 1.96739C4.68938 1.94116 5.04918 2.06215 5.33084 2.307C5.6125 2.55214 5.78197 2.89203 5.80792 3.26446C5.8299 3.58114 5.72745 3.88739 5.51912 4.12689C5.31079 4.36639 5.02171 4.51045 4.7049 4.53256C4.43298 4.55137 4.16972 4.46348 3.964 4.28441C3.75815 4.10547 3.63441 3.85704 3.61546 3.58499C3.60201 3.39122 3.74812 3.22326 3.94176 3.20981C4.1358 3.19593 4.30348 3.34233 4.31694 3.5361C4.32916 3.71092 4.48132 3.84275 4.65614 3.83108C4.78537 3.82216 4.90347 3.76324 4.98848 3.66546C5.07362 3.56768 5.11551 3.44258 5.10645 3.31321C5.09354 3.12823 5.00935 2.95932 4.86942 2.83751C4.72948 2.71583 4.55026 2.65582 4.36542 2.66873C4.11067 2.68644 3.87817 2.80249 3.71049 2.99502C3.54295 3.1877 3.46042 3.43406 3.47827 3.68881C3.50107 4.01593 3.51054 4.41583 3.43488 4.7836C3.70473 4.75929 3.97774 4.74611 4.25391 4.74611C9.22453 4.74611 13.2539 8.77548 13.2539 13.7461Z" fill="#06995F"/>
<path d="M11.5104 15.1776C11.4019 16.1057 11.169 16.9888 10.8316 17.8134C10.2402 17.9357 9.62759 18 9 18C8.63388 18 8.27298 17.9776 7.91826 17.935C8.3606 16.9876 8.66176 15.9548 8.78989 14.8594C9.28894 10.5927 7.04265 6.63863 3.43488 4.78358C3.7094 4.75845 3.97293 4.74609 4.25391 4.74609C4.35141 4.74609 4.44823 4.74815 4.54504 4.75131C8.75432 6.37234 12.0495 10.5686 11.5104 15.1776ZM0.720428 5.46652C0.256943 6.55142 0 7.74564 0 9C0 10.6488 0.44371 12.1939 1.21783 13.5228C2.44899 11.049 2.56544 8.14828 1.54674 5.16083C1.26508 5.24954 0.989456 5.35172 0.720428 5.46652ZM2.54031 4.90993C2.37126 4.94261 2.20386 4.97969 2.03838 5.02158C3.98749 8.05476 4.16203 11.9539 2.44102 15.162C2.4472 15.1687 2.45352 15.1753 2.4597 15.1819C3.43982 16.2184 5.18239 15.7202 5.48163 14.3253C6.19753 10.9872 5.18156 7.38322 2.54031 4.90993Z" fill="#08B772"/>
<path d="M16.8384 8.99999C16.5196 11.0014 15.5861 12.9292 14.0379 14.4774C13.0269 15.4885 11.854 16.2375 10.6043 16.7243C7.05009 18.1089 2.9901 16.7063 1.13341 13.3745C1.10855 13.3298 1.08411 13.2851 1.05994 13.2399L13.8013 0.498492C13.8792 0.420627 14.0152 0.428592 14.1043 0.517718C14.1048 0.518268 14.1054 0.518817 14.1059 0.519366C16.4085 2.82183 17.3171 5.99399 16.8384 8.99999Z" fill="#06995F"/>
<path d="M16.128 11.4215C15.6428 12.5296 14.9463 13.5689 14.0379 14.4774C11.6994 16.8158 8.495 17.7529 5.47856 17.2848C5.0674 17.1098 4.67203 16.9049 4.29492 16.6733C4.42772 16.2697 4.52083 15.8415 4.56848 15.3958C4.93034 15.6011 5.30759 15.7843 5.69843 15.9428C8.86523 16.411 12.2291 15.4738 14.684 13.1355C15.2411 12.6046 15.7225 12.0292 16.128 11.4215Z" fill="#006E42"/>
<path d="M15.9147 9.00001C15.4162 10.6397 14.4862 12.2286 13.1376 13.5771C11.163 15.5517 8.6732 16.6296 6.2628 16.7682C4.93483 16.8445 3.63542 16.3473 2.6873 15.4141C2.04144 14.7784 1.49117 14.0459 1.05981 13.2399L9.00005 5.29982L13.8013 0.498517C13.8792 0.420652 14.006 0.419416 14.084 0.497419C14.0844 0.497831 14.0849 0.49838 14.0853 0.498792C16.2689 2.68232 16.8483 5.9303 15.9147 9.00001Z" fill="#FD5CA6"/>
<path d="M15.9147 9C15.4162 10.6397 14.4862 12.2286 13.1376 13.577C11.1936 15.5211 8.75037 16.5959 6.37512 16.761C4.97038 16.8587 3.59421 16.3315 2.60352 15.3306C1.99377 14.7145 1.47234 14.0107 1.05994 13.2399L1.60623 12.6935C2.99051 13.5924 4.59026 14.106 6.29492 14.106C11.552 14.106 15.8143 9.22549 15.8202 3.20251C16.4898 4.98985 16.5133 7.03152 15.9147 9Z" fill="#FD3D96"/>
<path d="M15.9146 9.00001C15.416 10.6397 14.4861 12.2286 13.1375 13.5771C10.6131 16.1014 7.24693 17.1602 4.28104 16.6645C3.69629 16.3039 3.15604 15.8781 2.67017 15.3973C5.73563 16.0747 9.30673 15.0386 11.9529 12.3925C12.9734 11.372 13.7543 10.2137 14.29 9.00001C15.5704 6.09893 15.4488 2.88062 13.8437 0.466241C13.9199 0.42257 14.0189 0.432458 14.0839 0.497415C14.0843 0.497827 14.0848 0.498376 14.0852 0.498788C16.2688 2.68232 16.8482 5.93029 15.9146 9.00001Z" fill="#D3F1F5"/>
<path d="M10.7797 10.5974C10.7797 10.9409 10.5013 11.2191 10.158 11.2191C9.87864 11.2191 9.63351 11.0329 9.55894 10.7636L9.29101 9.79775C9.27961 9.75683 9.31738 9.71906 9.3583 9.73046L10.3241 9.99839C10.5933 10.0731 10.7797 10.3181 10.7797 10.5974ZM11.8192 6.45489C11.6796 6.21292 11.3957 6.09399 11.1252 6.16389L10.1548 6.41479C10.1136 6.42536 10.0999 6.477 10.1302 6.5068L10.8452 7.20924C11.0444 7.40507 11.3498 7.44393 11.5917 7.30427C11.8891 7.13247 11.9909 6.75234 11.8192 6.45489ZM6.06721 10.5697C6.03741 10.5393 5.98591 10.5531 5.97534 10.5943L5.7243 11.5646C5.6544 11.8352 5.77346 12.119 6.01544 12.2587C6.31276 12.4304 6.69302 12.3286 6.86468 12.0311C7.00434 11.7893 6.96548 11.4839 6.76979 11.2846L6.06721 10.5697Z" fill="#813873"/>
</g>
<defs>
<clipPath id="clip0_292_1069">
<rect width="18" height="18" fill="white"/>
</clipPath>
</defs>
</svg>
