<svg width="18" height="18" viewBox="0 0 18 18" fill="none" xmlns="http://www.w3.org/2000/svg">
<g clip-path="url(#clip0_292_618)">
<path d="M18 9C18 13.9706 13.9706 18 9 18C8.05325 18 7.14084 17.8535 6.28377 17.5824C5.40294 14.7965 3.20348 12.5971 0.417618 11.7162C0.14653 10.8592 0 9.94675 0 9C0 4.02937 4.02937 0 9 0C13.9706 0 18 4.02937 18 9Z" fill="#04D481"/>
<path d="M15.8539 4.93176C15.7325 5.05316 15.6777 5.22826 15.7026 5.41049C15.8538 6.51819 15.7011 7.57068 15.2598 8.45164C15.1246 8.72163 14.7667 8.78275 14.5531 8.5692C13.392 7.40808 11.9372 6.58438 10.3441 6.18613C9.74923 6.0374 9.17354 5.82921 8.62532 5.56636C7.9244 5.23018 7.74669 4.31241 8.26511 3.73302C8.34833 3.63991 8.41549 3.5674 8.463 3.51974C9.48253 2.50021 10.9778 2.07738 12.5895 2.29738C12.7716 2.32224 12.9468 2.26744 13.0682 2.14604L13.8173 1.39691C14.9383 2.10869 15.8913 3.06161 16.603 4.18263L15.8539 4.93176Z" fill="#84DEEA"/>
<path d="M15.8539 4.93176C15.7325 5.05316 15.6777 5.22826 15.7026 5.41049C15.8538 6.51819 15.7011 7.57068 15.2598 8.45164C15.1246 8.72163 14.7667 8.78275 14.5531 8.5692C13.392 7.40808 11.9371 6.58438 10.3441 6.18613C9.6774 6.01941 9.03497 5.77798 8.42798 5.46858C8.85947 4.95978 9.2043 4.56152 9.35454 4.41129C10.3741 3.39175 11.8692 2.96878 13.481 3.18878C13.6631 3.21364 13.8382 3.15884 13.9597 3.03745L14.8425 2.15469C15.5253 2.73807 16.1198 3.42142 16.603 4.18263L15.8539 4.93176Z" fill="#D3F1F5"/>
<path d="M16.0445 4.6707L13.3293 1.95557C13.1921 1.81824 13.1921 1.59563 13.3293 1.4583L13.9465 0.841278C14.0838 0.703949 14.3064 0.703949 14.4436 0.841278L17.1588 3.55641C17.2961 3.6936 17.2961 3.91621 17.1588 4.05354L16.5417 4.6707C16.4044 4.80789 16.1818 4.80789 16.0445 4.6707Z" fill="#C2186C"/>
<path d="M16.0444 4.6707L14.1555 2.7816C14.0182 2.64441 14.0182 2.4218 14.1555 2.28447L14.7726 1.66745C14.9098 1.53012 15.1324 1.53012 15.2698 1.66745L17.1587 3.55641C17.2961 3.6936 17.2961 3.91621 17.1587 4.05354L16.5417 4.6707C16.4044 4.80789 16.1818 4.80789 16.0444 4.6707Z" fill="#E31E7F"/>
<path d="M15.4474 8.02126C15.2331 8.59296 14.9099 9.10725 14.4803 9.53696C13.9402 10.0771 10.1938 13.1309 9.62804 13.6967C9.06238 14.2623 7.62949 15.8158 7.24181 16.4236L7.23727 16.4306C6.99571 16.8092 6.71323 17.1601 6.39517 17.4772L6.28819 17.5838C3.49876 16.7035 1.29655 14.5013 0.416138 11.7118L0.516388 11.6113C0.837463 11.2891 1.19301 11.0031 1.57643 10.7582C2.18425 10.3705 3.73772 8.93765 4.30338 8.37199C4.84225 7.83311 7.63855 4.40854 8.36969 3.6178L8.62787 3.87611C9.47821 4.72632 10.5436 5.32961 11.7102 5.62129C12.8768 5.91298 13.9422 6.51613 14.7926 7.36647L15.4474 8.02126Z" fill="#FDBFDC"/>
<path d="M10.1183 11.818C9.02228 13.036 7.14485 13.073 6.00117 11.9294C5.26385 11.192 5.01804 10.1499 5.26221 9.2086C4.64697 9.81683 3.13828 11.2033 2.53732 11.5867C2.14662 11.8363 1.78448 12.1277 1.45723 12.456L0.929199 12.9858C0.727325 12.5777 0.555115 12.1521 0.416138 11.712L0.516388 11.6115C0.837463 11.2891 1.19301 11.0031 1.57643 10.7582C2.18425 10.3705 3.73772 8.93779 4.30338 8.37199C4.84225 7.83311 7.63855 4.40868 8.36969 3.6178L8.62787 3.87611C8.84306 4.09131 9.07213 4.29057 9.313 4.47308C8.87959 4.96115 8.07457 5.92314 7.29262 6.85506C7.18687 6.98112 7.29742 7.17256 7.45892 7.14084C8.37463 6.96121 9.36162 7.23573 10.0586 7.96509C11.0773 9.0309 11.1045 10.7221 10.1183 11.818Z" fill="#FDA2CD"/>
<path d="M9.39396 12.1068C9.2429 12.8172 8.52082 13.2597 7.81028 13.0556C7.2037 12.8815 6.81657 12.272 6.91544 11.6488C6.97299 11.2861 7.17733 10.9876 7.4557 10.7997C7.61994 10.689 7.83294 10.6915 8.00584 10.788C8.11309 10.8478 8.23106 10.8928 8.35754 10.9197C8.48388 10.9466 8.60981 10.9535 8.73217 10.9425C8.93047 10.9247 9.12644 11.0102 9.2315 11.1793C9.39753 11.4461 9.46455 11.7751 9.39396 12.1068ZM7.13064 10.4746C7.24146 10.3105 7.23885 10.0975 7.14245 9.92464C7.08257 9.81724 7.03753 9.69942 7.01061 9.57294C6.98383 9.44659 6.97697 9.32052 6.98795 9.1983C7.00567 9 6.92025 8.80403 6.7512 8.69897C6.48423 8.53294 6.15533 8.46593 5.82368 8.53651C5.11314 8.68758 4.6708 9.40965 4.87487 10.1202C5.049 10.7266 5.65847 11.1139 6.28167 11.015C6.64422 10.9575 6.94291 10.7531 7.13064 10.4746Z" fill="#C2186C"/>
<path d="M9.7811 8.59502C9.11011 9.26601 8.71062 10.1163 8.71227 10.8699C8.71268 11.0439 8.57192 11.1853 8.39778 11.1857C8.31058 11.1859 8.23148 11.1506 8.17435 11.0934C8.11736 11.0365 8.0822 10.958 8.08206 10.8712C8.0811 10.4454 8.18163 9.99811 8.36812 9.56236C7.93237 9.74886 7.48496 9.84938 7.05924 9.84842C6.97244 9.84828 6.89403 9.81299 6.83704 9.75613C6.77991 9.69901 6.74461 9.6199 6.74475 9.53256C6.74516 9.35857 6.88661 9.2178 7.06061 9.21822C7.81413 9.21986 8.66447 8.82037 9.33546 8.14938C9.45851 8.02634 9.65805 8.02634 9.7811 8.14938C9.90415 8.27243 9.90415 8.47197 9.7811 8.59502Z" fill="#037E4B"/>
</g>
<defs>
<clipPath id="clip0_292_618">
<rect width="18" height="18" fill="white"/>
</clipPath>
</defs>
</svg>
