<svg width="125" height="32" viewBox="0 0 125 32" fill="none" xmlns="http://www.w3.org/2000/svg">
<path d="M15.6085 0.98053C22.3203 0.98053 26.05 0.980843 28.4864 3.42584C30.9242 5.86948 30.9249 9.61037 30.9249 16.3409C30.9249 23.0712 30.9241 26.8132 28.4864 29.2569C26.05 31.7003 22.3202 31.7003 15.6085 31.7003C8.89824 31.7003 5.16823 31.6991 2.73053 29.2569C0.295809 26.8132 0.295959 23.071 0.295959 16.3409C0.295959 9.61214 0.2959 5.86809 2.73053 3.42584C5.16823 0.980864 8.89824 0.98053 15.6085 0.98053ZM73.2481 15.4962L73.8936 17.5753H74.126L74.7178 15.46L76.0616 11.9483H79.8243L75.5421 21.338C74.5744 23.4704 73.1939 24.0264 70.5596 24.0264H68.9297V20.9796H71.546C71.8146 20.9795 72.0296 20.9438 72.1729 20.8721L67.8546 11.9483H71.6895L73.2481 15.4962ZM17.5967 12.086L17.0733 14.3672L7.82916 14.3497L7.82819 16.6319L16.5528 16.6495L16.0391 18.9278L7.82819 18.9112V21.1924L15.5255 21.21H15.5128C15.2151 22.3605 16.0545 23.501 17.2071 23.501H18.8057L19.6876 21.21H15.5255L16.0391 18.9307L21.2706 18.9405L22.0831 16.6592L16.5635 16.6495L17.0801 14.3672L24.5508 14.3311L25.4766 12.0596L17.5967 12.086ZM52.5528 11.7686C55.7067 11.7686 57.2296 13.3103 57.2296 15.837V20.9796H54.0762V19.0801H53.8965C53.5561 20.3524 52.4453 21.1592 50.4922 21.1592C48.4494 21.1592 47.3018 20.2267 47.3018 18.6856C47.302 17.4136 48.1803 16.5 50.2227 16.3028L53.8965 15.9444V15.7647C53.8965 14.8511 53.5023 14.7081 52.3018 14.7081C51.1908 14.7081 50.8506 14.9232 50.8506 15.6758V15.7471H47.4815V15.711C47.4817 13.3099 49.4886 11.7686 52.5528 11.7686ZM62.6368 11.7686C65.7728 11.7686 67.4395 12.8981 67.4395 15.1202V15.1915H64.0704V15.084C64.0704 14.6181 63.8912 14.4034 62.5294 14.4034C61.4364 14.4034 61.2931 14.5464 61.293 14.8868C61.293 15.1376 61.4361 15.2636 62.4932 15.3712L64.2852 15.5674C66.9195 15.8542 67.7618 16.7327 67.7618 18.2559C67.7618 19.9403 66.0775 21.1592 63.085 21.1592C59.8953 21.1592 58.1925 19.9225 58.1924 17.8438V17.7725H61.5616V17.9512C61.5616 18.453 61.8841 18.5069 63.1026 18.5069C64.2674 18.5069 64.4464 18.3809 64.4464 18.0762C64.4462 17.7899 64.3028 17.7185 63.461 17.629L60.8448 17.3419C58.9811 17.1447 57.9776 16.2664 57.9776 14.7432C57.9778 13.1485 59.2502 11.7686 62.6368 11.7686ZM102.235 11.7686C105.389 11.7687 106.912 13.3103 106.912 15.837V20.9796H103.759V19.0801H103.579C103.239 20.3524 102.128 21.1591 100.175 21.1592C98.132 21.1592 96.9844 20.2267 96.9844 18.6856C96.9846 17.4135 97.8629 16.5 99.9053 16.3028L103.579 15.9444V15.7647C103.579 14.8511 103.185 14.7081 101.984 14.7081C100.873 14.7081 100.533 14.9232 100.533 15.6758V15.7471H97.1641V15.711C97.1643 13.3099 99.1712 11.7686 102.235 11.7686ZM46.6133 12.002H39.3204V13.4356H46.3448V16.4464H39.3204V17.9512H46.6133V20.9796H35.9512V8.97369H46.6133V12.002ZM86.9649 13.9551L88.1475 17.0557H88.3799L89.5098 13.9551L91.6055 8.97369H96.1758V20.9796H92.8067V16.0157L92.9317 14.0089H92.6993L92.0186 16.0157L90.2266 20.2628H86.1407L84.3487 16.0157L83.6671 14.0089H83.4346L83.5596 16.0157V20.9796H80.1905V8.97369H84.7608L86.9649 13.9551ZM114.219 11.7686C116.208 11.7686 116.996 13.0769 116.996 14.8868V16.6788H113.627V15.6221C113.627 14.8696 113.341 14.6007 112.463 14.6006C111.549 14.6006 111.28 14.8692 111.28 15.586V20.9796H107.911V11.9483H111.065V14.3135H111.244C111.495 12.8262 112.427 11.7686 114.219 11.7686ZM121.868 11.9483H124.467V14.7081H121.868V17.0557C121.868 17.772 122.084 17.9512 122.854 17.9512H124.467V20.9796H122.102C119.844 20.9796 118.499 19.8866 118.499 17.5391V14.7081H117.173V11.9483H118.499V10.3887H121.868V11.9483ZM51.1192 18.1309C50.8147 18.1667 50.6896 18.2738 50.6895 18.4708C50.6895 18.7574 50.9757 18.8116 51.4952 18.8116C53.1259 18.8116 53.7894 18.6141 53.879 17.8077L51.1192 18.1309ZM100.802 18.1309C100.497 18.1667 100.371 18.2738 100.371 18.4708C100.371 18.7575 100.658 18.8116 101.178 18.8116C102.809 18.8116 103.472 18.6141 103.562 17.8077L100.802 18.1309ZM7.82819 12.0606L17.5958 12.0772L17.6837 11.6797C17.9022 10.7192 17.2031 9.79623 16.251 9.79596L7.82916 9.7774L7.82819 12.0606Z" fill="#B6349A"/>
</svg>
